<?xml version="1.0" encoding="utf-8"?><svg viewBox="0 0 400 380" xmlns="http://www.w3.org/2000/svg" xmlns:xlink="http://www.w3.org/1999/xlink"><style>:root>svg{display:none}:root>svg:target{display:block}</style><svg fill="none" viewBox="0 0 24 24" id="arrow-left" xmlns="http://www.w3.org/2000/svg"><path d="M19 12H5M12 19l-7-7 7-7" stroke="#333" stroke-width="1.5" stroke-linecap="round" stroke-linejoin="round"/></svg><svg fill="none" viewBox="0 0 25 24" id="arrow-right" xmlns="http://www.w3.org/2000/svg"><path d="M5.5 12h14M12.5 5l7 7-7 7" stroke="#333" stroke-width="1.5" stroke-linecap="round" stroke-linejoin="round"/></svg><svg fill="none" viewBox="0 0 400 380" id="illustration" xmlns="http://www.w3.org/2000/svg"><circle cx="200" cy="190" r="185" fill="#EBF2FF"/><path d="M55.506 328.682c-1.563.091-2.426-1.714-1.244-2.766l.117-.435a16.06 16.06 0 00-.046-.105c-1.58-3.504-6.936-3.48-8.503.03-1.39 3.115-3.161 6.235-3.597 9.528a11.818 11.818 0 00.24 4.362c-3.26-6.62-4.974-13.848-4.974-21.118 0-1.826.108-3.652.328-5.474.18-1.49.43-2.972.752-4.439 1.744-7.933 5.52-15.488 10.967-21.799 2.619-1.331 4.803-3.412 6.121-5.906.474-.9.846-1.867 1.021-2.853-.297.036-1.123-4.185-.898-4.444-.416-.586-1.159-.877-1.612-1.449-2.256-2.844-5.364-2.348-6.986 1.517-3.466 1.627-3.5 4.325-1.373 6.92 1.353 1.651 1.539 3.884 2.726 5.652-.122.145-.25.286-.372.431a51.406 51.406 0 00-5.81 8.56c.462-3.353-.22-7.392-1.38-9.995-1.323-2.967-3.801-5.465-5.984-8.03-2.621-3.08-7.997-1.736-8.46 2.169l-.012.113c.324.17.642.351.952.542 1.77 1.088 1.158 3.639-.939 3.94l-.047.007c.117 1.086.317 2.163.61 3.221-2.8 10.07 3.245 13.738 11.876 13.903.19.091.377.182.567.268a48.714 48.714 0 00-2.09 7.019 48.548 48.548 0 00-.968 6.366 46.615 46.615 0 00.039 8.091l-.015-.095c-.62-2.962-2.35-5.729-4.86-7.647-3.741-2.857-9.026-3.91-13.062-6.207-1.942-1.106-4.431.323-4.092 2.418l.016.1a15.894 15.894 0 012.706 1.328c1.77 1.088 1.158 3.639-.939 3.94l-.047.007-.098.014a21.428 21.428 0 004.265 6.21c1.75 8.791 9.27 9.625 17.313 7.065h.005A50.364 50.364 0 0041.534 340h13.63c.05-.141.093-.286.137-.427-1.26.073-2.53.004-3.771-.209 1.01-1.154 2.022-2.317 3.033-3.471.025-.023.044-.046.064-.068.513-.591 1.03-1.177 1.544-1.768a19.688 19.688 0 00-.665-5.374v-.001z" fill="#DDD"/><path d="M390 339c0 .555-.364 1-.818 1H10.818c-.454 0-.818-.445-.818-1 0-.555.364-1 .818-1h378.364c.454 0 .818.445.818 1z" fill="#DDD"/><path d="M265.157 44.966a63.863 63.863 0 0133.261-14.483 63.961 63.961 0 0135.805 5.952 63.65 63.65 0 0126.736 24.458 63.295 63.295 0 018.994 35.03 63.322 63.322 0 01-11.664 34.239 63.697 63.697 0 01-28.54 22.344 63.971 63.971 0 01-36.158 3.2 63.821 63.821 0 01-32.048-16.98l-78.183 65.71a5.887 5.887 0 01-8.264-.702 5.836 5.836 0 01.68-8.234l.009-.007 78.183-65.71a63.29 63.29 0 01-10.9-44.567 63.421 63.421 0 0122.089-40.25zm5.04 78.49a47.773 47.773 0 0023.26 15.027 47.942 47.942 0 0027.721-.377 47.763 47.763 0 0022.839-15.654 47.407 47.407 0 004.48-52.663 47.673 47.673 0 00-19.87-19.258 47.918 47.918 0 00-27.263-5.017 47.849 47.849 0 00-25.466 10.915 47.502 47.502 0 00-16.787 32.338 47.438 47.438 0 0011.086 34.689z" fill="#042668"/><path opacity=".3" d="M337.489 129.134a47.513 47.513 0 0016.581-30.396 47.423 47.423 0 00-8.478-33.546 47.493 47.493 0 0111.655 19.124 47.4 47.4 0 01-3.085 36.274 47.584 47.584 0 01-11.623 14.506 47.81 47.81 0 01-16.31 8.971 47.933 47.933 0 01-36.419-3.073 47.724 47.724 0 01-16.965-14.661 47.845 47.845 0 0031.773 13.968 47.882 47.882 0 0032.871-11.167z" fill="#000"/><path d="M107.54 206.892a6.557 6.557 0 01-1.377-5.384 6.567 6.567 0 013.261-4.508l14.25-58.1 10.396 3.306-15.388 57.703a6.577 6.577 0 01.378 4.675 6.605 6.605 0 01-2.835 3.746 6.652 6.652 0 01-4.616.925 6.635 6.635 0 01-4.069-2.363z" fill="#FFDEC2"/><path d="M114.906 169.729l7.597 6.528 10.629 9.127 4.695-23.924.491-2.488.387-1.975-10.77-18.686-8.979.513-.613.037-.013.135-.141 1.253-1.841 16.491-.043.398-1.399 12.591z" fill="#EC3D5A"/><path d="M164.564 332.125l7.523-.001 3.58-28.905-11.104.001.001 28.905z" fill="#FFDEC2"/><path d="M162.645 339.389l24.26-.001v-.306a9.394 9.394 0 00-2.766-6.65 9.462 9.462 0 00-6.677-2.755l-14.817.001v9.711z" fill="#2F2E41"/><path d="M86.013 332.736l7.524-.001 3.58-28.905-11.105.001.001 28.905z" fill="#FFDEC2"/><path d="M84.094 340l24.26-.001v-.305a9.39 9.39 0 00-2.766-6.651 9.464 9.464 0 00-6.677-2.754H84.094V340z" fill="#2F2E41"/><path d="M150.684 179.057l-.418 3.723-27.308-2.751-.455-3.771-2.062-17.195-.116-.978-2.136-17.836-.141-1.174.282-.079.626-.172 9.114-2.5h15.446l9.45 1.981a2.476 2.476 0 011.96 2.7l-.082.729-1.258 11.29-2.902 26.033z" fill="#EC3D5A"/><path d="M100.251 324.285L80 321.229l24.547-115.527s.614-12.837 18.411-25.673l27.308 2.75 3.989 13.754v9.169l29.457 116.138-22.706 3.057-31.292-99.929-29.463 99.317z" fill="#073BA1"/><path d="M137.659 128.591c-8.324 0-15.072-6.721-15.072-15.013 0-8.291 6.748-15.013 15.072-15.013 8.325 0 15.073 6.722 15.073 15.013 0 8.292-6.748 15.013-15.073 15.013z" fill="#FFDEC2"/><path d="M121.828 176.58l29.817 3.883-.557 4.243-29.817-3.884.557-4.242z" fill="#333"/><path d="M191.639 181.742c-.285.184-.555.39-.808.616l-29.491-7.488-2.012-7.087-11.134 1.627 2.338 12.89a4.88 4.88 0 001.49 2.713 4.913 4.913 0 002.827 1.281l34.434 3.612a6.427 6.427 0 002.602 2.806 6.465 6.465 0 007.299-.595 6.414 6.414 0 002.109-3.191 6.392 6.392 0 00-.086-3.82 6.417 6.417 0 00-2.25-3.094 6.46 6.46 0 00-7.318-.27z" fill="#FFDEC2"/><path d="M146.277 142.131l5.217-3.973c1.41-.533 3.343.981 3.682 2.445l7.364 29.952-15.342 11.002-2.148-3.362 1.227-36.064z" fill="#EC3D5A"/><path d="M116.348 156.74c1.302.515 2.629.964 3.977 1.345.429.129.871.251 1.307.367a40.649 40.649 0 008.8 1.418 27.84 27.84 0 003.842-.104 21.675 21.675 0 004.044-.795l.135-.036c2.744-.776 5.26-2.2 7.334-4.151.463-.449.895-.929 1.294-1.436a12.936 12.936 0 002.799-10.104 8.732 8.732 0 00-.209-.96 15.3 15.3 0 00-.914-2.506 15.62 15.62 0 00-.547-1.119l-6.934-2.335H128.07l-9.114 2.5-.613.037-.013.135-.282.079.141 1.174-1.841 16.491z" fill="#000"/><path d="M149.209 101.149c2.819-.345 5.912-.101 8.109 1.691 2.197 1.793 2.906 5.518.826 7.444-1.841 1.705-4.721 1.304-7.188 1.789a9.73 9.73 0 00-5.406 3.325 9.664 9.664 0 00-2.193 5.939c.036 6.219 6.029 10.929 7.105 17.055.735 4.181-1.036 8.581-4.096 11.534-3.061 2.954-7.268 4.55-11.507 4.982-4.239.432-8.526-.228-12.646-1.313-4.137-1.089-8.209-2.635-11.681-5.127-3.471-2.492-6.316-6.006-7.431-10.121-1.114-4.115-.314-8.833 2.558-11.993 3.289-3.618 8.76-4.862 11.604-8.836 3.189-4.455 2.009-10.799 4.59-15.628 1.723-3.225 4.986-5.424 8.464-6.582 3.478-1.16 7.192-1.388 10.857-1.5 1.927-.059 3.913-.079 5.708.621 1.795.7 3.373 2.294 3.466 4.212.093 1.918-1.139 2.508-1.139 2.508z" fill="#2F2E41"/><path opacity=".3" d="M286.75 49.791a47.618 47.618 0 00-14.735 11.523 49.112 49.112 0 00-9.322 16.442 50.038 50.038 0 00-2.491 18.857 49.871 49.871 0 004.72 18.402 49.489 49.489 0 006.299 9.981 47.719 47.719 0 0013.728 11.497c9.356 5.212 20.146 7.039 30.635 5.189 10.488-1.85 20.067-7.271 27.198-15.391 7.13-8.12 11.397-18.469 12.115-29.382.719-10.913-2.153-21.757-8.154-30.79-6.426-9.674-16.024-16.646-27.04-19.644-11.017-2.998-22.715-1.821-32.956 3.316h.003z" fill="#fff"/><path opacity=".3" d="M333.925 53.07l-48.976 83.408a46.615 46.615 0 0017.205 5.597l44.589-75.956a47.656 47.656 0 00-12.818-13.05zM317.612 45.96l-46.391 79.036a47.386 47.386 0 006.433 6.492l48.555-82.705a45.994 45.994 0 00-8.597-2.823z" fill="#fff"/><path fill-rule="evenodd" clip-rule="evenodd" d="M302.886 185.664c-19.401-6.643-33.713-.018-42.584 18.994l19.08 7.889c3.013-6.611 8.831-10.078 16.11-7.935 7.145 2.103 12.964 6.418 12.996 11.911.034 5.933-7.163 9.835-10.45 11.363-6.087 2.837-14.282 3.354-19.856 6.826-5.462 3.402-8.707 9.507-12.192 17.181l16.816 6.952c2.293-4.879 4.596-9.509 8.139-11.666 5.761-3.503 12.235-3.584 18.485-5.647 5.972-1.973 12.494-4.63 16.207-11.382 11.118-20.203-2.02-37.391-22.751-44.486z" fill="#073BA1"/><path d="M263.042 283.259c5.864 2.424 12.552-.292 14.94-6.067 2.388-5.774-.43-12.421-6.294-14.845-5.863-2.424-12.552.292-14.94 6.066-2.387 5.775.431 12.421 6.294 14.846z" fill="#073BA1"/><path fill-rule="evenodd" clip-rule="evenodd" d="M170.158 40.84c-14.257 4.787-19.633 15.027-16.317 30.052l14.626-3.919c-1.195-5.192.645-9.806 5.838-11.805 5.098-1.963 10.41-2.047 12.879 1.136 2.666 3.439.217 8.92-1.014 11.277-2.278 4.366-6.818 8.323-8.514 12.83-1.662 4.417-.828 9.418.567 15.44l12.89-3.454c-.842-3.864-1.567-7.586-.467-10.422 1.791-4.608 5.524-7.544 8.242-11.533 2.596-3.812 5.207-8.268 4.357-13.854-2.54-16.72-17.855-20.866-33.087-15.748z" fill="#073BA1"/><path d="M190.498 115.424c4.494-1.204 7.177-5.769 5.99-10.195-1.186-4.427-5.791-7.039-10.285-5.835-4.495 1.205-7.177 5.769-5.991 10.196 1.186 4.426 5.791 7.038 10.286 5.834z" fill="#073BA1"/><path fill-rule="evenodd" clip-rule="evenodd" d="M328.711 55.425c-14.241-4.832-24.724.056-31.19 14.018l14.009 5.745c2.196-4.854 6.456-7.409 11.798-5.852 5.244 1.527 9.521 4.68 9.556 8.707.038 4.351-5.233 7.228-7.64 8.356-4.458 2.093-10.467 2.49-14.547 5.047-3.999 2.507-6.366 6.99-8.906 12.626l12.347 5.063c1.672-3.583 3.351-6.983 5.944-8.573 4.218-2.58 8.966-2.653 13.545-4.18 4.375-1.46 9.153-3.421 11.862-8.38 8.112-14.84-1.559-27.418-16.778-32.577z" fill="#EC3D5A"/><path d="M299.695 127.08c4.305 1.766 9.205-.24 10.944-4.48 1.738-4.24-.342-9.108-4.647-10.874-4.305-1.765-9.205.24-10.944 4.48-1.739 4.24.342 9.109 4.647 10.874z" fill="#EC3D5A"/></svg><svg fill="none" viewBox="0 0 30 27" id="shopping-cart" xmlns="http://www.w3.org/2000/svg"><path d="M1.4 1.7h5.2M6.6 1.7L11 18.9M11.8 18.9h16.5M13.8 25.7a3 3 0 100-6 3 3 0 000 6zM25.3 25.7a3 3 0 100-6 3 3 0 000 6zM25.7 14.6H11.3c-.6 0-1.2-.4-1.3-1L8.1 6.9c-.2-.9.4-1.7 1.3-1.7h18.1c.9 0 1.6.9 1.3 1.7l-1.9 6.7c0 .6-.5 1-1.2 1z" stroke="#4F4F4F" stroke-linecap="round" stroke-miterlimit="10" stroke-width="2"/></svg><svg data-name="Слой 1" viewBox="0 0 32 32" id="trash" xmlns="http://www.w3.org/2000/svg"><path d="M25.931 6.19h-5.065a3.077 3.077 0 00-3.033-2.61h-3.538a3.077 3.077 0 00-3.032 2.61H6.069a1.512 1.512 0 100 3.022H25.93a1.512 1.512 0 100-3.023zM14.295 4.52h3.538a2.143 2.143 0 012.087 1.67h-7.712a2.143 2.143 0 012.087-1.67zm11.636 3.752H6.07a.571.571 0 010-1.142H25.93a.571.571 0 110 1.142zM25.128 9.905a.471.471 0 00-.47.471v16.398a.706.706 0 01-.705.706H8.023a.706.706 0 01-.704-.706V10.376a.47.47 0 10-.942 0v16.398a1.648 1.648 0 001.647 1.646h15.929a1.648 1.648 0 001.646-1.646V10.376a.471.471 0 00-.47-.47z"/><path d="M12.769 23.633v-10.66a1.573 1.573 0 00-3.146 0v10.66a1.573 1.573 0 003.146 0zm-2.204 0v-10.66a.631.631 0 111.263 0v10.66a.631.631 0 11-1.263 0zM17.573 23.633v-10.66a1.573 1.573 0 00-3.146 0v10.66a1.573 1.573 0 003.146 0zm-2.204 0v-10.66a.631.631 0 111.262 0v10.66a.631.631 0 11-1.262 0zM22.376 23.633v-10.66a1.573 1.573 0 00-3.145 0v10.66a1.573 1.573 0 003.145 0zm-2.204 0v-10.66a.631.631 0 111.263 0v10.66a.631.631 0 11-1.263 0z"/></svg></svg>